<!DOCTYPE svg PUBLIC "-//W3C//DTD SVG 20010904//EN" "http://www.w3.org/TR/2001/REC-SVG-20010904/DTD/svg10.dtd">
<svg version="1.0" xmlns="http://www.w3.org/2000/svg" width="311px" height="458px" viewBox="0 0 3110 4580" preserveAspectRatio="xMidYMid meet">
<g id="layer101" fill="#1e6feb" stroke="none">
 <path d="M2135 4528 c-88 -16 -434 -81 -770 -144 -335 -63 -765 -144 -954 -180 -189 -36 -346 -63 -348 -60 -3 3 -12 -2 -21 -10 -13 -14 -13 -24 7 -97 12 -45 103 -386 202 -757 234 -878 385 -1441 504 -1880 53 -195 115 -423 137 -507 l41 -152 326 -175 c179 -96 478 -256 665 -355 186 -100 339 -181 341 -179 2 4 46 4195 45 4386 0 78 -3 142 -7 141 -5 0 -80 -14 -168 -31z"/>
 <path d="M2476 4348 c-3 -101 -10 -671 -16 -1268 -6 -597 -15 -1517 -21 -2045 -6 -528 -9 -970 -8 -982 4 -21 22 -13 250 112 l245 135 12 303 c35 870 95 2350 123 3015 17 415 29 756 27 758 -4 3 -589 154 -600 154 -3 0 -8 -82 -12 -182z"/>
 </g>

</svg>
